<svg width="1336" height="1728" viewBox="0 0 1336 1728" fill="none" xmlns="http://www.w3.org/2000/svg">
<path d="M669.188 1727.55C455.617 1727.55 290.298 1657.15 173.23 1516.35C57.7432 1373.97 0 1155.65 0 861.401C0 579.805 59.3252 366.234 177.976 220.69C296.626 73.5632 461.945 0 673.934 0C885.923 0 1048.87 71.1902 1162.77 213.571C1278.26 354.369 1336 571.895 1336 866.147C1336 1147.74 1276.68 1362.11 1158.03 1509.23C1040.96 1654.78 878.012 1727.55 669.188 1727.55ZM671.561 1480.76C772.809 1480.76 847.954 1467.31 896.997 1440.42C946.039 1411.94 980.843 1354.99 1001.41 1269.56C1023.56 1184.13 1034.63 1049.66 1034.63 866.147C1034.63 677.889 1024.35 541.837 1003.78 457.99C984.798 372.562 950.785 316.401 901.743 289.507C852.7 261.031 774.391 246.793 666.815 246.793C565.567 246.793 489.63 261.031 439.006 289.507C389.964 316.401 354.369 373.353 332.221 460.363C311.655 545.792 301.372 681.053 301.372 866.147C301.372 1052.82 310.864 1188.09 329.848 1271.93C350.414 1355.78 385.218 1411.94 434.26 1440.42C484.884 1467.31 563.985 1480.76 671.561 1480.76Z" fill="black"/>
</svg>
