<svg width="167" height="216" viewBox="0 0 167 216" fill="none" xmlns="http://www.w3.org/2000/svg">
<path d="M83.6485 215.944C56.9522 215.944 36.2872 207.144 21.6537 189.544C7.2179 171.746 0 144.457 0 107.675C0 72.4756 7.41565 45.7793 22.2469 27.5862C37.0782 9.1954 57.7432 0 84.2417 0C110.74 0 131.109 8.89878 145.347 26.6963C159.782 44.2961 167 71.4868 167 108.268C167 143.468 159.585 170.263 144.753 188.654C130.12 206.847 109.752 215.944 83.6485 215.944ZM83.9451 185.095C96.6012 185.095 105.994 183.414 112.125 180.052C118.255 176.492 122.605 169.373 125.176 158.695C127.945 148.016 129.329 131.207 129.329 108.268C129.329 84.7361 128.043 67.7296 125.473 57.2488C123.1 46.5703 118.848 39.5501 112.718 36.1884C106.588 32.6288 96.7989 30.8491 83.3519 30.8491C70.6958 30.8491 61.2038 32.6288 54.8758 36.1884C48.7455 39.5501 44.2961 46.6691 41.5276 57.5454C38.9569 68.224 37.6715 85.1316 37.6715 108.268C37.6715 131.603 38.858 148.511 41.231 158.991C43.8018 169.472 48.1523 176.492 54.2825 180.052C60.6105 183.414 70.4981 185.095 83.9451 185.095Z" fill="black"/>
</svg>
