<svg width="2314" height="831" viewBox="0 0 2314 831" fill="none" xmlns="http://www.w3.org/2000/svg">
<path d="M2188.12 800.999V277.399H2011.02V179.499L2091.32 173.999C2127.99 171.066 2154.76 162.266 2171.62 147.599C2188.49 132.199 2198.39 110.566 2201.32 82.699L2205.72 30.999H2313.52V800.999H2188.12Z" fill="black"/>
<path d="M1576.83 816.401C1494.7 816.401 1424.3 799.901 1365.63 766.901C1307.7 733.901 1263.7 687.334 1233.63 627.201C1203.56 566.334 1188.53 495.567 1188.53 414.901C1188.53 334.967 1203.93 264.934 1234.73 204.801C1265.53 144.667 1310.26 98.1006 1368.93 65.1006C1427.6 32.1006 1498.36 15.6006 1581.23 15.6006C1663.36 15.6006 1733.4 32.1006 1791.33 65.1006C1850 98.1006 1894.36 145.034 1924.43 205.901C1954.5 266.034 1969.53 336.434 1969.53 417.101C1969.53 497.034 1954.13 567.067 1923.33 627.201C1893.26 687.334 1848.53 733.901 1789.13 766.901C1730.46 799.901 1659.7 816.401 1576.83 816.401ZM1580.13 695.401C1649.06 695.401 1699.66 688.801 1731.93 675.601C1764.93 661.667 1787.3 635.634 1799.03 597.501C1811.5 559.367 1817.73 499.234 1817.73 417.101C1817.73 334.967 1811.5 274.834 1799.03 236.701C1787.3 197.834 1764.93 171.434 1731.93 157.501C1699.66 143.567 1649.06 136.601 1580.13 136.601C1511.2 136.601 1460.23 143.567 1427.23 157.501C1394.96 171.434 1372.23 197.834 1359.03 236.701C1346.56 275.567 1340.33 335.701 1340.33 417.101C1340.33 498.501 1346.56 558.634 1359.03 597.501C1372.23 635.634 1394.96 661.667 1427.23 675.601C1460.23 688.801 1511.2 695.401 1580.13 695.401Z" fill="black"/>
<path d="M969.598 800.999H838.698V140.999H593.398V30.999H1214.9V140.999H969.598V800.999Z" fill="black"/>
<path d="M243.398 135.765C227.609 139.044 214.309 143.72 203.499 149.801C180.766 162.267 164.266 188.669 153.999 229.002C144.466 268.602 139.699 331.301 139.699 417.1C139.699 503.632 144.098 566.333 152.897 605.2C162.431 644.067 178.566 670.1 201.299 683.3C212.386 689.19 226.419 693.687 243.398 696.794V810.864C176.034 799.039 121.668 768.254 80.2998 718.5C26.7665 652.5 0 551.299 0 414.899C0.000160733 284.367 27.5002 185.366 82.5 117.899C123.885 66.583 177.517 34.5735 243.398 21.8701V135.765ZM309.1 130.002C334.804 130.002 356.903 131.759 375.398 135.267V696.806C357.39 700.266 336.024 702 311.3 702C284.993 702 262.358 700.264 243.398 696.794V135.765C261.886 131.925 283.786 130.002 309.1 130.002ZM375.398 20.6367C443.569 32.1624 498.103 63.4815 538.998 114.601C592.531 179.867 619.298 280.7 619.298 417.1C619.298 547.633 591.798 647.001 536.798 715.201C495.384 766.688 441.584 798.523 375.398 810.718V696.806C391.574 693.698 405.042 689.199 415.799 683.3C438.532 670.1 454.664 643.701 464.197 604.102C474.464 564.502 479.599 502.166 479.599 417.1C479.599 329.833 474.832 266.767 465.299 227.9C456.499 188.301 440.732 162.267 417.999 149.801C406.984 143.405 392.783 138.563 375.398 135.267V20.6367Z" fill="black"/>
</svg>
