<svg width="167" height="216" viewBox="0 0 167 216" fill="none" xmlns="http://www.w3.org/2000/svg">
<path fill-rule="evenodd" clip-rule="evenodd" d="M84.2422 0C110.741 9.90685e-05 131.109 8.89885 145.347 26.6963C159.782 44.2961 167 71.487 167 108.269C167 143.468 159.585 170.264 144.754 188.654C130.12 206.847 109.752 215.943 83.6484 215.943C56.9521 215.943 36.2869 207.144 21.6533 189.544C7.21762 171.746 0 144.456 0 107.675C5.14344e-05 72.4754 7.41583 45.7789 22.2471 27.5859C37.0784 9.19528 57.7437 0 84.2422 0ZM83.0957 31.1924C75.8812 31.1924 69.6968 31.7725 64.543 32.9316L65.4795 46.6074H65.5195V170.008H65.4795L64.5518 183.545C69.8257 184.588 76.2041 185.111 83.6875 185.111C91.0604 185.111 97.3231 184.538 102.477 183.395L101.56 170.008H101.52V46.6074H101.561L102.497 32.9268C97.2182 31.7707 90.7509 31.1924 83.0957 31.1924Z" fill="black"/>
</svg>
