<svg width="167" height="209" viewBox="0 0 167 209" fill="none" xmlns="http://www.w3.org/2000/svg">
<path d="M57.5203 0.285059C61.1402 4.84906 63.3282 11.8312 64.0805 21.2343L64.6234 29.1655C60.7554 30.0355 57.4675 31.231 54.7602 32.7538C48.6428 36.1085 44.2025 43.213 41.4398 54.0663C38.8746 64.7223 37.5922 81.5942 37.5922 104.682C37.5922 127.967 38.7758 144.84 41.1437 155.298C43.7091 165.757 48.0507 172.762 54.168 176.314C56.961 177.798 60.4492 178.952 64.632 179.78L64.0797 187.85C63.3252 197.281 61.1265 204.276 57.4875 208.839C43.0111 204.826 31.0507 197.143 21.6078 185.786C7.20262 168.026 0 140.794 0 104.09C4.80054e-05 68.9646 7.40009 42.3248 22.2 24.1702C31.6167 12.4935 43.3903 4.53231 57.5203 0.285059Z" fill="black"/>
<path d="M109.909 -9.75132e-05C124.164 4.0662 135.875 11.8259 145.04 23.2819C159.445 40.8446 166.648 67.978 166.648 104.682C166.648 139.807 159.248 166.546 144.448 184.898C135.128 196.485 123.477 204.373 109.495 208.565C105.984 203.997 103.86 197.093 103.12 187.85L102.557 179.629C106.231 178.814 109.342 177.71 111.888 176.314C118.005 172.762 122.346 165.658 124.912 155.002C127.674 144.346 129.056 127.573 129.056 104.682C129.056 81.1994 127.773 64.2289 125.208 53.7702C122.84 43.1142 118.597 36.1085 112.48 32.7538C109.852 31.2283 106.551 30.0311 102.577 29.1608L103.12 21.2343C103.888 11.634 106.151 4.556 109.909 -9.75132e-05Z" fill="black"/>
<path d="M57.5203 0.285059C61.1402 4.84906 63.3282 11.8312 64.0805 21.2343L64.6234 29.1655C60.7554 30.0355 57.4675 31.231 54.7602 32.7538C48.6428 36.1085 44.2025 43.213 41.4398 54.0663C38.8746 64.7223 37.5922 81.5942 37.5922 104.682C37.5922 127.967 38.7758 144.84 41.1437 155.298C43.7091 165.757 48.0507 172.762 54.168 176.314C56.961 177.798 60.4492 178.952 64.632 179.78L64.0797 187.85C63.3252 197.281 61.1265 204.276 57.4875 208.839C43.0111 204.826 31.0507 197.143 21.6078 185.786C7.20262 168.026 0 140.794 0 104.09C4.80054e-05 68.9646 7.40009 42.3248 22.2 24.1702C31.6167 12.4935 43.3903 4.53231 57.5203 0.285059ZM109.909 -9.75132e-05C124.164 4.0662 135.875 11.8259 145.04 23.2819C159.445 40.8446 166.648 67.978 166.648 104.682C166.648 139.807 159.248 166.546 144.448 184.898C135.128 196.485 123.477 204.373 109.495 208.565C105.984 203.997 103.86 197.093 103.12 187.85L102.557 179.629C106.231 178.814 109.342 177.71 111.888 176.314C118.005 172.762 122.346 165.658 124.912 155.002C127.674 144.346 129.056 127.573 129.056 104.682C129.056 81.1994 127.773 64.2289 125.208 53.7702C122.84 43.1142 118.597 36.1085 112.48 32.7538C109.852 31.2283 106.551 30.0311 102.577 29.1608L103.12 21.2343C103.888 11.634 106.151 4.556 109.909 -9.75132e-05ZM83.1758 27.4265C90.8311 27.4265 97.2984 28.0048 102.577 29.1608L101.641 42.8421H101.6V166.242H101.64L102.557 179.629C97.4035 180.772 91.1408 181.346 83.768 181.346C76.2845 181.346 69.906 180.823 64.632 179.78L65.5602 166.242H65.6V42.8421H65.5602L64.6234 29.1655C69.7773 28.0064 75.9613 27.4265 83.1758 27.4265Z" fill="black"/>
</svg>
