<svg width="1336" height="1728" viewBox="0 0 1336 1728" fill="none" xmlns="http://www.w3.org/2000/svg">
<path fill-rule="evenodd" clip-rule="evenodd" d="M673.938 0C885.924 0.000792548 1048.87 71.1908 1162.77 213.57C1278.26 354.369 1336 571.896 1336 866.148C1336 1147.74 1276.68 1362.11 1158.03 1509.23C1040.96 1654.78 878.012 1727.55 669.188 1727.55C455.617 1727.55 290.295 1657.15 173.227 1516.35C57.7409 1373.97 0 1155.65 0 861.398C0.000411475 579.803 59.3266 366.231 177.977 220.688C296.627 73.5623 461.95 0 673.938 0ZM664.766 249.539C607.05 249.539 557.575 254.18 516.344 263.453L523.836 372.859H524.156V1360.06H523.836L516.414 1468.36C558.606 1476.71 609.632 1480.89 669.5 1480.89C728.483 1480.89 778.584 1476.3 819.812 1467.16L812.477 1360.06H812.156V372.859H812.484L819.977 263.414C777.745 254.166 726.007 249.539 664.766 249.539Z" fill="black"/>
</svg>
