<svg width="1334" height="1671" viewBox="0 0 1334 1671" fill="none" xmlns="http://www.w3.org/2000/svg">
<path d="M460.163 2.28126C489.121 38.7933 506.626 94.6505 512.644 169.875L516.987 233.325C486.043 240.285 459.74 249.849 438.081 262.031C389.143 288.869 353.62 345.705 331.519 432.531C310.996 517.779 300.738 652.754 300.738 837.456C300.738 1023.74 310.206 1158.72 329.15 1242.39C349.673 1326.06 384.406 1382.1 433.344 1410.51C455.688 1422.38 483.594 1431.62 517.056 1438.24L512.638 1502.8C506.602 1578.25 489.012 1634.21 459.9 1670.71C344.089 1638.61 248.406 1577.14 172.863 1486.29C57.6209 1344.21 0 1126.35 0 832.719C0.000384043 551.718 59.2007 338.599 177.6 193.363C252.934 99.9489 347.122 36.2592 460.163 2.28126Z" fill="black"/>
<path d="M879.269 1.33514e-05C993.314 32.5304 1087 94.6077 1160.32 186.256C1275.56 326.757 1333.18 543.825 1333.18 837.456C1333.18 1118.46 1273.98 1332.37 1155.58 1479.19C1081.02 1571.88 987.812 1634.99 875.956 1668.52C847.876 1631.98 830.878 1576.74 824.963 1502.8L820.456 1437.03C849.85 1430.51 874.737 1421.68 895.106 1410.51C944.043 1382.1 978.771 1325.26 999.294 1240.02C1021.4 1154.77 1032.45 1020.58 1032.45 837.456C1032.45 649.596 1022.19 513.832 1001.66 430.163C982.719 344.914 948.776 288.869 899.838 262.031C878.819 249.827 852.412 240.25 820.619 233.288L824.963 169.875C831.107 93.0728 849.211 36.4488 879.269 1.33514e-05Z" fill="black"/>
<path d="M460.163 2.28126C489.121 38.7933 506.626 94.6505 512.644 169.875L516.987 233.325C486.043 240.285 459.74 249.849 438.081 262.031C389.143 288.869 353.62 345.705 331.519 432.531C310.996 517.779 300.738 652.754 300.738 837.456C300.738 1023.74 310.206 1158.72 329.15 1242.39C349.673 1326.06 384.406 1382.1 433.344 1410.51C455.688 1422.38 483.594 1431.62 517.056 1438.24L512.638 1502.8C506.602 1578.25 489.012 1634.21 459.9 1670.71C344.089 1638.61 248.406 1577.14 172.863 1486.29C57.6209 1344.21 0 1126.35 0 832.719C0.000384043 551.718 59.2007 338.599 177.6 193.363C252.934 99.9489 347.122 36.2592 460.163 2.28126ZM879.269 1.33514e-05C993.314 32.5304 1087 94.6077 1160.32 186.256C1275.56 326.757 1333.18 543.825 1333.18 837.456C1333.18 1118.46 1273.98 1332.37 1155.58 1479.19C1081.02 1571.88 987.812 1634.99 875.956 1668.52C847.876 1631.98 830.878 1576.74 824.963 1502.8L820.456 1437.03C849.85 1430.51 874.737 1421.68 895.106 1410.51C944.043 1382.1 978.771 1325.26 999.294 1240.02C1021.4 1154.77 1032.45 1020.58 1032.45 837.456C1032.45 649.596 1022.19 513.832 1001.66 430.163C982.719 344.914 948.776 288.869 899.838 262.031C878.819 249.827 852.412 240.25 820.619 233.288L824.963 169.875C831.107 93.0728 849.211 36.4488 879.269 1.33514e-05ZM665.406 219.413C726.649 219.413 778.387 224.039 820.619 233.288L813.125 342.738H812.8V1329.94H813.119L820.456 1437.03C779.228 1446.18 729.127 1450.77 670.144 1450.77C610.276 1450.77 559.248 1446.58 517.056 1438.24L524.481 1329.94H524.8V342.738H524.481L516.987 233.325C558.218 224.052 607.69 219.413 665.406 219.413Z" fill="black"/>
</svg>
